#tb 0: 1/48000
0,          0,          0,     1024,     4096, 0x00000000
0,       1024,       1024,      577,     2308, 0x00000000
0,       1601,       1601,     1024,     4096, 0x00000000
0,       2625,       2625,      578,     2312, 0x00000000
0,       3203,       3203,     1024,     4096, 0x00000000
0,       4227,       4227,      577,     2308, 0x00000000
0,       4804,       4804,     1024,     4096, 0x00000000
0,       5828,       5828,      578,     2312, 0x00000000
0,       6406,       6406,     1024,     4096, 0x00000000
0,       7430,       7430,      578,     2312, 0x00000000
0,       8008,       8008,     1024,     4096, 0x00000000
0,       9032,       9032,      577,     2308, 0x00000000
0,       9609,       9609,     1024,     4096, 0x00000000
0,      10633,      10633,      578,     2312, 0x00000000
0,      11211,      11211,     1024,     4096, 0x00000000
0,      12235,      12235,      577,     2308, 0x00000000
0,      12812,      12812,     1024,     4096, 0x00000000
0,      13836,      13836,      578,     2312, 0x00000000
0,      14414,      14414,     1024,     4096, 0x00000000
0,      15438,      15438,      578,     2312, 0x00000000
0,      16016,      16016,     1024,     4096, 0x00000000
0,      17040,      17040,      577,     2308, 0x00000000
0,      17617,      17617,     1024,     4096, 0x00000000
0,      18641,      18641,      578,     2312, 0x00000000
0,      19219,      19219,     1024,     4096, 0x00000000
0,      20243,      20243,      577,     2308, 0x00000000
0,      20820,      20820,     1024,     4096, 0x00000000
0,      21844,      21844,      578,     2312, 0x00000000
0,      22422,      22422,     1024,     4096, 0x00000000
0,      23446,      23446,      578,     2312, 0x00000000
0,      24024,      24024,     1024,     4096, 0x00000000
0,      25048,      25048,      577,     2308, 0x00000000
0,      25625,      25625,     1024,     4096, 0x00000000
0,      26649,      26649,      578,     2312, 0x00000000
0,      27227,      27227,     1024,     4096, 0x00000000
0,      28251,      28251,      577,     2308, 0x00000000
0,      28828,      28828,     1024,     4096, 0x00000000
0,      29852,      29852,      578,     2312, 0x00000000
0,      30430,      30430,     1024,     4096, 0x00000000
0,      31454,      31454,      578,     2312, 0x00000000
0,      32032,      32032,     1024,     4096, 0x00000000
0,      33056,      33056,      577,     2308, 0x00000000
0,      33633,      33633,     1024,     4096, 0x00000000
0,      34657,      34657,      578,     2312, 0x00000000
0,      35235,      35235,     1024,     4096, 0x00000000
0,      36259,      36259,      577,     2308, 0x00000000
0,      36836,      36836,     1024,     4096, 0x00000000
0,      37860,      37860,      578,     2312, 0x00000000
0,      38438,      38438,     1024,     4096, 0x00000000
0,      39462,      39462,      578,     2312, 0x00000000
0,      40040,      40040,     1024,     4096, 0x00000000
0,      41064,      41064,      577,     2308, 0x00000000
0,      41641,      41641,     1024,     4096, 0x00000000
0,      42665,      42665,      578,     2312, 0x00000000
0,      43243,      43243,     1024,     4096, 0x00000000
0,      44267,      44267,      577,     2308, 0x00000000
0,      44844,      44844,     1024,     4096, 0x00000000
0,      45868,      45868,      578,     2312, 0x00000000
0,      46446,      46446,     1024,     4096, 0x00000000
0,      47470,      47470,      578,     2312, 0x00000000
0,      48048,      48048,     1024,     4096, 0x00000000
0,      49072,      49072,      577,     2308, 0x00000000
0,      49649,      49649,     1024,     4096, 0x00000000
0,      50673,      50673,      578,     2312, 0x00000000
0,      51251,      51251,     1024,     4096, 0x00000000
0,      52275,      52275,      577,     2308, 0x00000000
0,      52852,      52852,     1024,     4096, 0x00000000
0,      53876,      53876,      578,     2312, 0x00000000
0,      54454,      54454,     1024,     4096, 0x00000000
0,      55478,      55478,      578,     2312, 0x00000000
0,      56056,      56056,     1024,     4096, 0x00000000
0,      57080,      57080,      577,     2308, 0x00000000
0,      57657,      57657,     1024,     4096, 0x00000000
0,      58681,      58681,      578,     2312, 0x00000000
0,      59259,      59259,     1024,     4096, 0x00000000
0,      60283,      60283,      577,     2308, 0x00000000
0,      60860,      60860,     1024,     4096, 0x00000000
0,      61884,      61884,      578,     2312, 0x00000000
0,      62462,      62462,     1024,     4096, 0x00000000
0,      63486,      63486,      578,     2312, 0x00000000
0,      64064,      64064,     1024,     4096, 0x00000000
0,      65088,      65088,      577,     2308, 0x00000000
0,      65665,      65665,     1024,     4096, 0x00000000
0,      66689,      66689,      578,     2312, 0x00000000
0,      67267,      67267,     1024,     4096, 0x00000000
0,      68291,      68291,      577,     2308, 0x00000000
0,      68868,      68868,     1024,     4096, 0x00000000
0,      69892,      69892,      578,     2312, 0x00000000
0,      70470,      70470,     1024,     4096, 0x00000000
0,      71494,      71494,      578,     2312, 0x00000000
0,      72072,      72072,     1024,     4096, 0x00000000
0,      73096,      73096,      577,     2308, 0x00000000
0,      73673,      73673,     1024,     4096, 0x00000000
0,      74697,      74697,      578,     2312, 0x00000000
0,      75275,      75275,     1024,     4096, 0x00000000
0,      76299,      76299,      577,     2308, 0x00000000
0,      76876,      76876,     1024,     4096, 0x00000000
0,      77900,      77900,      578,     2312, 0x00000000
0,      78478,      78478,     1024,     4096, 0x00000000
0,      79502,      79502,      578,     2312, 0x00000000
0,      80080,      80080,     1024,     4096, 0x00000000
0,      81104,      81104,      577,     2308, 0x00000000
0,      81681,      81681,     1024,     4096, 0x00000000
0,      82705,      82705,      578,     2312, 0x00000000
0,      83283,      83283,     1024,     4096, 0x00000000
0,      84307,      84307,      577,     2308, 0x00000000
0,      84884,      84884,     1024,     4096, 0x00000000
0,      85908,      85908,      578,     2312, 0x00000000
0,      86486,      86486,     1024,     4096, 0x00000000
0,      87510,      87510,      578,     2312, 0x00000000
0,      88088,      88088,     1024,     4096, 0x00000000
0,      89112,      89112,      577,     2308, 0x00000000
0,      89689,      89689,     1024,     4096, 0x00000000
0,      90713,      90713,      578,     2312, 0x00000000
0,      91291,      91291,     1024,     4096, 0x00000000
0,      92315,      92315,      577,     2308, 0x00000000
0,      92892,      92892,     1024,     4096, 0x00000000
0,      93916,      93916,      578,     2312, 0x00000000
0,      94494,      94494,     1024,     4096, 0x00000000
0,      95518,      95518,      578,     2312, 0x00000000
0,      96096,      96096,     1024,     4096, 0x00000000
0,      97120,      97120,      577,     2308, 0x00000000
0,      97697,      97697,     1024,     4096, 0x00000000
0,      98721,      98721,      578,     2312, 0x00000000
0,      99299,      99299,     1024,     4096, 0x00000000
0,     100323,     100323,      577,     2308, 0x00000000
0,     100900,     100900,     1024,     4096, 0x00000000
0,     101924,     101924,      578,     2312, 0x00000000
0,     102502,     102502,     1024,     4096, 0x00000000
0,     103526,     103526,      578,     2312, 0x00000000
0,     104104,     104104,     1024,     4096, 0x00000000
0,     105128,     105128,      577,     2308, 0x00000000
0,     105705,     105705,     1024,     4096, 0x00000000
0,     106729,     106729,      578,     2312, 0x00000000
0,     107307,     107307,     1024,     4096, 0x00000000
0,     108331,     108331,      577,     2308, 0x00000000
0,     108908,     108908,     1024,     4096, 0x00000000
0,     109932,     109932,      578,     2312, 0x00000000
0,     110510,     110510,     1024,     4096, 0x00000000
0,     111534,     111534,      578,     2312, 0x00000000
0,     112112,     112112,     1024,     4096, 0x00000000
0,     113136,     113136,      577,     2308, 0x00000000
0,     113713,     113713,     1024,     4096, 0x00000000
0,     114737,     114737,      578,     2312, 0x00000000
0,     115315,     115315,     1024,     4096, 0x00000000
0,     116339,     116339,      577,     2308, 0x00000000
0,     116916,     116916,     1024,     4096, 0x00000000
0,     117940,     117940,      578,     2312, 0x00000000
0,     118518,     118518,     1024,     4096, 0x00000000
0,     119542,     119542,      578,     2312, 0x00000000
0,     120120,     120120,     1024,     4096, 0x00000000
0,     121144,     121144,      577,     2308, 0x00000000
0,     121721,     121721,     1024,     4096, 0x00000000
0,     122745,     122745,      578,     2312, 0x00000000
0,     123323,     123323,     1024,     4096, 0x00000000
0,     124347,     124347,      577,     2308, 0x00000000
0,     124924,     124924,     1024,     4096, 0x00000000
0,     125948,     125948,      578,     2312, 0x00000000
0,     126526,     126526,     1024,     4096, 0x00000000
0,     127550,     127550,      578,     2312, 0x00000000
0,     128128,     128128,     1024,     4096, 0x00000000
0,     129152,     129152,      577,     2308, 0x00000000
0,     129729,     129729,     1024,     4096, 0x00000000
0,     130753,     130753,      578,     2312, 0x00000000
0,     131331,     131331,     1024,     4096, 0x00000000
0,     132355,     132355,      577,     2308, 0x00000000
0,     132932,     132932,     1024,     4096, 0x00000000
0,     133956,     133956,      578,     2312, 0x00000000
0,     134534,     134534,     1024,     4096, 0x00000000
0,     135558,     135558,      578,     2312, 0x00000000
0,     136136,     136136,     1024,     4096, 0x00000000
0,     137160,     137160,      577,     2308, 0x00000000
0,     137737,     137737,     1024,     4096, 0x00000000
0,     138761,     138761,      578,     2312, 0x00000000
0,     139339,     139339,     1024,     4096, 0x00000000
0,     140363,     140363,      577,     2308, 0x00000000
0,     140940,     140940,     1024,     4096, 0x00000000
0,     141964,     141964,      578,     2312, 0x00000000
0,     142542,     142542,     1024,     4096, 0x00000000
0,     143566,     143566,      578,     2312, 0x00000000
0,     144144,     144144,     1024,     4096, 0x00000000
0,     145168,     145168,      577,     2308, 0x00000000
0,     145745,     145745,     1024,     4096, 0x00000000
0,     146769,     146769,      578,     2312, 0x00000000
0,     147347,     147347,     1024,     4096, 0x00000000
0,     148371,     148371,      577,     2308, 0x00000000
0,     148948,     148948,     1024,     4096, 0x00000000
0,     149972,     149972,      578,     2312, 0x00000000
0,     150550,     150550,     1024,     4096, 0x00000000
0,     151574,     151574,      578,     2312, 0x00000000
0,     152152,     152152,     1024,     4096, 0x00000000
0,     153176,     153176,      577,     2308, 0x00000000
0,     153753,     153753,     1024,     4096, 0x00000000
0,     154777,     154777,      578,     2312, 0x00000000
0,     155355,     155355,     1024,     4096, 0x00000000
0,     156379,     156379,      577,     2308, 0x00000000
0,     156956,     156956,     1024,     4096, 0x00000000
0,     157980,     157980,      578,     2312, 0x00000000
0,     158558,     158558,     1024,     4096, 0x00000000
0,     159582,     159582,      578,     2312, 0x00000000
0,     160160,     160160,     1024,     4096, 0x00000000
0,     161184,     161184,      577,     2308, 0x00000000
0,     161761,     161761,     1024,     4096, 0x00000000
0,     162785,     162785,      578,     2312, 0x00000000
0,     163363,     163363,     1024,     4096, 0x00000000
0,     164387,     164387,      577,     2308, 0x00000000
0,     164964,     164964,     1024,     4096, 0x00000000
0,     165988,     165988,      578,     2312, 0x00000000
0,     166566,     166566,     1024,     4096, 0x00000000
0,     167590,     167590,      578,     2312, 0x00000000
0,     168168,     168168,     1024,     4096, 0x00000000
0,     169192,     169192,      577,     2308, 0x00000000
0,     169769,     169769,     1024,     4096, 0x00000000
0,     170793,     170793,      578,     2312, 0x00000000
0,     171371,     171371,     1024,     4096, 0x00000000
0,     172395,     172395,      577,     2308, 0x00000000
0,     172972,     172972,     1024,     4096, 0x00000000
0,     173996,     173996,      578,     2312, 0x00000000
0,     174574,     174574,     1024,     4096, 0x00000000
0,     175598,     175598,      578,     2312, 0x00000000
0,     176176,     176176,     1024,     4096, 0x00000000
0,     177200,     177200,      577,     2308, 0x00000000
0,     177777,     177777,     1024,     4096, 0x00000000
0,     178801,     178801,      578,     2312, 0x00000000
0,     179379,     179379,     1024,     4096, 0x00000000
0,     180403,     180403,      577,     2308, 0x00000000
0,     180980,     180980,     1024,     4096, 0x00000000
0,     182004,     182004,      578,     2312, 0x00000000
0,     182582,     182582,     1024,     4096, 0x00000000
0,     183606,     183606,      578,     2312, 0x00000000
0,     184184,     184184,     1024,     4096, 0x00000000
0,     185208,     185208,      577,     2308, 0x00000000
0,     185785,     185785,     1024,     4096, 0x00000000
0,     186809,     186809,      578,     2312, 0x00000000
0,     187387,     187387,     1024,     4096, 0x00000000
0,     188411,     188411,      577,     2308, 0x00000000
0,     188988,     188988,     1024,     4096, 0x00000000
0,     190012,     190012,      578,     2312, 0x00000000
0,     190590,     190590,     1024,     4096, 0x00000000
0,     191614,     191614,      578,     2312, 0x00000000
0,     192192,     192192,     1024,     4096, 0x00000000
0,     193216,     193216,      577,     2308, 0x00000000
0,     193793,     193793,     1024,     4096, 0x00000000
0,     194817,     194817,      578,     2312, 0x00000000
0,     195395,     195395,     1024,     4096, 0x00000000
0,     196419,     196419,      577,     2308, 0x00000000
0,     196996,     196996,     1024,     4096, 0x00000000
0,     198020,     198020,      578,     2312, 0x00000000
0,     198598,     198598,     1024,     4096, 0x00000000
0,     199622,     199622,      578,     2312, 0x00000000
0,     200200,     200200,     1024,     4096, 0x00000000
0,     201224,     201224,      577,     2308, 0x00000000
0,     201801,     201801,     1024,     4096, 0x00000000
0,     202825,     202825,      578,     2312, 0x00000000
0,     203403,     203403,     1024,     4096, 0x00000000
0,     204427,     204427,      578,     2312, 0x00000000
0,     205005,     205005,     1024,     4096, 0x00000000
0,     206029,     206029,      577,     2308, 0x00000000
0,     206606,     206606,     1024,     4096, 0x00000000
0,     207630,     207630,      578,     2312, 0x00000000
0,     208208,     208208,     1024,     4096, 0x00000000
0,     209232,     209232,      577,     2308, 0x00000000
0,     209809,     209809,     1024,     4096, 0x00000000
0,     210833,     210833,      578,     2312, 0x00000000
0,     211411,     211411,     1024,     4096, 0x00000000
0,     212435,     212435,      578,     2312, 0x00000000
0,     213013,     213013,     1024,     4096, 0x00000000
0,     214037,     214037,      577,     2308, 0x00000000
0,     214614,     214614,     1024,     4096, 0x00000000
0,     215638,     215638,      578,     2312, 0x00000000
0,     216216,     216216,     1024,     4096, 0x00000000
0,     217240,     217240,      577,     2308, 0x00000000
0,     217817,     217817,     1024,     4096, 0x00000000
0,     218841,     218841,      578,     2312, 0x00000000
0,     219419,     219419,     1024,     4096, 0x00000000
0,     220443,     220443,      578,     2312, 0x00000000
0,     221021,     221021,     1024,     4096, 0x00000000
0,     222045,     222045,      577,     2308, 0x00000000
0,     222622,     222622,     1024,     4096, 0x00000000
0,     223646,     223646,      578,     2312, 0x00000000
0,     224224,     224224,     1024,     4096, 0x00000000
0,     225248,     225248,      577,     2308, 0x00000000
0,     225825,     225825,     1024,     4096, 0x00000000
0,     226849,     226849,      578,     2312, 0x00000000
0,     227427,     227427,     1024,     4096, 0x00000000
0,     228451,     228451,      578,     2312, 0x00000000
0,     229029,     229029,     1024,     4096, 0x00000000
0,     230053,     230053,      577,     2308, 0x00000000
0,     230630,     230630,     1024,     4096, 0x00000000
0,     231654,     231654,      578,     2312, 0x00000000
0,     232232,     232232,     1024,     4096, 0x00000000
0,     233256,     233256,      577,     2308, 0x00000000
0,     233833,     233833,     1024,     4096, 0x00000000
0,     234857,     234857,      578,     2312, 0x00000000
0,     235435,     235435,     1024,     4096, 0x00000000
0,     236459,     236459,      578,     2312, 0x00000000
0,     237037,     237037,     1024,     4096, 0x00000000
0,     238061,     238061,      577,     2308, 0x00000000
0,     238638,     238638,     1024,     4096, 0x00000000
0,     239662,     239662,      578,     2312, 0x00000000
0,     240240,     240240,     1024,     4096, 0x00000000
0,     241264,     241264,      577,     2308, 0x00000000
0,     241841,     241841,     1024,     4096, 0x00000000
0,     242865,     242865,      578,     2312, 0x00000000
0,     243443,     243443,     1024,     4096, 0x00000000
0,     244467,     244467,      578,     2312, 0x00000000
0,     245045,     245045,     1024,     4096, 0x00000000
0,     246069,     246069,      577,     2308, 0x00000000
0,     246646,     246646,     1024,     4096, 0x00000000
0,     247670,     247670,      578,     2312, 0x00000000
0,     248248,     248248,     1024,     4096, 0x00000000
0,     249272,     249272,      577,     2308, 0x00000000
0,     249849,     249849,     1024,     4096, 0x00000000
0,     250873,     250873,      578,     2312, 0x00000000
0,     251451,     251451,     1024,     4096, 0x00000000
0,     252475,     252475,      578,     2312, 0x00000000
0,     253053,     253053,     1024,     4096, 0x00000000
0,     254077,     254077,      577,     2308, 0x00000000
0,     254654,     254654,     1024,     4096, 0x00000000
0,     255678,     255678,      578,     2312, 0x00000000
0,     256256,     256256,     1024,     4096, 0x00000000
0,     257280,     257280,      577,     2308, 0x00000000
0,     257857,     257857,     1024,     4096, 0x00000000
0,     258881,     258881,      578,     2312, 0x00000000
0,     259459,     259459,     1024,     4096, 0x00000000
0,     260483,     260483,      578,     2312, 0x00000000
0,     261061,     261061,     1024,     4096, 0x00000000
0,     262085,     262085,      577,     2308, 0x00000000
0,     262662,     262662,     1024,     4096, 0x00000000
0,     263686,     263686,      578,     2312, 0x00000000
0,     264264,     264264,     1024,     4096, 0x00000000
0,     265288,     265288,      577,     2308, 0x00000000
0,     265865,     265865,     1024,     4096, 0x00000000
0,     266889,     266889,      578,     2312, 0x00000000
0,     267467,     267467,     1024,     4096, 0x00000000
0,     268491,     268491,      578,     2312, 0x00000000
0,     269069,     269069,     1024,     4096, 0x00000000
0,     270093,     270093,      577,     2308, 0x00000000
0,     270670,     270670,     1024,     4096, 0x00000000
0,     271694,     271694,      578,     2312, 0x00000000
0,     272272,     272272,     1024,     4096, 0x00000000
0,     273296,     273296,      577,     2308, 0x00000000
0,     273873,     273873,     1024,     4096, 0x00000000
0,     274897,     274897,      578,     2312, 0x00000000
0,     275475,     275475,     1024,     4096, 0x00000000
0,     276499,     276499,      578,     2312, 0x00000000
0,     277077,     277077,     1024,     4096, 0x00000000
0,     278101,     278101,      577,     2308, 0x00000000
0,     278678,     278678,     1024,     4096, 0x00000000
0,     279702,     279702,      578,     2312, 0x00000000
0,     280280,     280280,     1024,     4096, 0x00000000
0,     281304,     281304,      577,     2308, 0x00000000
0,     281881,     281881,     1024,     4096, 0x00000000
0,     282905,     282905,      578,     2312, 0x00000000
0,     283483,     283483,     1024,     4096, 0x00000000
0,     284507,     284507,      578,     2312, 0x00000000
0,     285085,     285085,     1024,     4096, 0x00000000
0,     286109,     286109,      577,     2308, 0x00000000
0,     286686,     286686,     1024,     4096, 0x00000000
0,     287710,     287710,      578,     2312, 0x00000000
0,     288288,     288288,     1024,     4096, 0x00000000
0,     289312,     289312,      577,     2308, 0x00000000
0,     289889,     289889,     1024,     4096, 0x00000000
0,     290913,     290913,      578,     2312, 0x00000000
0,     291491,     291491,     1024,     4096, 0x00000000
0,     292515,     292515,      578,     2312, 0x00000000
0,     293093,     293093,     1024,     4096, 0x00000000
0,     294117,     294117,      577,     2308, 0x00000000
0,     294694,     294694,     1024,     4096, 0x00000000
0,     295718,     295718,      578,     2312, 0x00000000
0,     296296,     296296,     1024,     4096, 0x00000000
0,     297320,     297320,      577,     2308, 0x00000000
0,     297897,     297897,     1024,     4096, 0x00000000
0,     298921,     298921,      578,     2312, 0x00000000
0,     299499,     299499,     1024,     4096, 0x00000000
0,     300523,     300523,      578,     2312, 0x00000000
0,     301101,     301101,     1024,     4096, 0x00000000
0,     302125,     302125,      577,     2308, 0x00000000
0,     302702,     302702,     1024,     4096, 0x00000000
0,     303726,     303726,      578,     2312, 0x00000000
0,     304304,     304304,     1024,     4096, 0x00000000
0,     305328,     305328,      577,     2308, 0x00000000
0,     305905,     305905,     1024,     4096, 0x00000000
0,     306929,     306929,      578,     2312, 0x00000000
0,     307507,     307507,     1024,     4096, 0x00000000
0,     308531,     308531,      578,     2312, 0x00000000
0,     309109,     309109,     1024,     4096, 0x00000000
0,     310133,     310133,      577,     2308, 0x00000000
0,     310710,     310710,     1024,     4096, 0x00000000
0,     311734,     311734,      578,     2312, 0x00000000
0,     312312,     312312,     1024,     4096, 0x00000000
0,     313336,     313336,      577,     2308, 0x00000000
0,     313913,     313913,     1024,     4096, 0x00000000
0,     314937,     314937,      578,     2312, 0x00000000
0,     315515,     315515,     1024,     4096, 0x00000000
0,     316539,     316539,      578,     2312, 0x00000000
0,     317117,     317117,     1024,     4096, 0x00000000
0,     318141,     318141,      577,     2308, 0x00000000
0,     318718,     318718,     1024,     4096, 0x00000000
0,     319742,     319742,      578,     2312, 0x00000000
0,     320320,     320320,     1024,     4096, 0x00000000
0,     321344,     321344,      577,     2308, 0x00000000
0,     321921,     321921,     1024,     4096, 0x00000000
0,     322945,     322945,      578,     2312, 0x00000000
0,     323523,     323523,     1024,     4096, 0x00000000
0,     324547,     324547,      578,     2312, 0x00000000
0,     325125,     325125,     1024,     4096, 0x00000000
0,     326149,     326149,      577,     2308, 0x00000000
0,     326726,     326726,     1024,     4096, 0x00000000
0,     327750,     327750,      578,     2312, 0x00000000
0,     328328,     328328,     1024,     4096, 0x00000000
0,     329352,     329352,      577,     2308, 0x00000000
0,     329929,     329929,     1024,     4096, 0x00000000
0,     330953,     330953,      578,     2312, 0x00000000
0,     331531,     331531,     1024,     4096, 0x00000000
0,     332555,     332555,      578,     2312, 0x00000000
0,     333133,     333133,     1024,     4096, 0x00000000
0,     334157,     334157,      577,     2308, 0x00000000
0,     334734,     334734,     1024,     4096, 0x00000000
0,     335758,     335758,      578,     2312, 0x00000000
0,     336336,     336336,     1024,     4096, 0x00000000
0,     337360,     337360,      577,     2308, 0x00000000
0,     337937,     337937,     1024,     4096, 0x00000000
0,     338961,     338961,      578,     2312, 0x00000000
0,     339539,     339539,     1024,     4096, 0x00000000
0,     340563,     340563,      578,     2312, 0x00000000
0,     341141,     341141,     1024,     4096, 0x00000000
0,     342165,     342165,      577,     2308, 0x00000000
0,     342742,     342742,     1024,     4096, 0x00000000
0,     343766,     343766,      578,     2312, 0x00000000
0,     344344,     344344,     1024,     4096, 0x00000000
0,     345368,     345368,      577,     2308, 0x00000000
0,     345945,     345945,     1024,     4096, 0x00000000
0,     346969,     346969,      578,     2312, 0x00000000
0,     347547,     347547,     1024,     4096, 0x00000000
0,     348571,     348571,      578,     2312, 0x00000000
0,     349149,     349149,     1024,     4096, 0x00000000
0,     350173,     350173,      577,     2308, 0x00000000
0,     350750,     350750,     1024,     4096, 0x00000000
0,     351774,     351774,      578,     2312, 0x00000000
0,     352352,     352352,     1024,     4096, 0x00000000
0,     353376,     353376,      577,     2308, 0x00000000
0,     353953,     353953,     1024,     4096, 0x00000000
0,     354977,     354977,      578,     2312, 0x00000000
0,     355555,     355555,     1024,     4096, 0x00000000
0,     356579,     356579,      578,     2312, 0x00000000
0,     357157,     357157,     1024,     4096, 0x00000000
0,     358181,     358181,      577,     2308, 0x00000000
0,     358758,     358758,     1024,     4096, 0x00000000
0,     359782,     359782,      578,     2312, 0x00000000
0,     360360,     360360,     1024,     4096, 0x00000000
0,     361384,     361384,      577,     2308, 0x00000000
0,     361961,     361961,     1024,     4096, 0x00000000
0,     362985,     362985,      578,     2312, 0x00000000
0,     363563,     363563,     1024,     4096, 0x00000000
0,     364587,     364587,      578,     2312, 0x00000000
0,     365165,     365165,     1024,     4096, 0x00000000
0,     366189,     366189,      577,     2308, 0x00000000
0,     366766,     366766,     1024,     4096, 0x00000000
0,     367790,     367790,      578,     2312, 0x00000000
0,     368368,     368368,     1024,     4096, 0x00000000
0,     369392,     369392,      577,     2308, 0x00000000
0,     369969,     369969,     1024,     4096, 0x00000000
0,     370993,     370993,      578,     2312, 0x00000000
0,     371571,     371571,     1024,     4096, 0x00000000
0,     372595,     372595,      578,     2312, 0x00000000
0,     373173,     373173,     1024,     4096, 0x00000000
0,     374197,     374197,      577,     2308, 0x00000000
0,     374774,     374774,     1024,     4096, 0x00000000
0,     375798,     375798,      578,     2312, 0x00000000
0,     376376,     376376,     1024,     4096, 0x00000000
0,     377400,     377400,      577,     2308, 0x00000000
0,     377977,     377977,     1024,     4096, 0x00000000
0,     379001,     379001,      578,     2312, 0x00000000
0,     379579,     379579,     1024,     4096, 0x00000000
0,     380603,     380603,      578,     2312, 0x00000000
0,     381181,     381181,     1024,     4096, 0x00000000
0,     382205,     382205,      577,     2308, 0x00000000
0,     382782,     382782,     1024,     4096, 0x00000000
0,     383806,     383806,      578,     2312, 0x00000000
0,     384384,     384384,     1024,     4096, 0x00000000
0,     385408,     385408,      577,     2308, 0x00000000
0,     385985,     385985,     1024,     4096, 0x00000000
0,     387009,     387009,      578,     2312, 0x00000000
0,     387587,     387587,     1024,     4096, 0x00000000
0,     388611,     388611,      578,     2312, 0x00000000
0,     389189,     389189,     1024,     4096, 0x00000000
0,     390213,     390213,      577,     2308, 0x00000000
0,     390790,     390790,     1024,     4096, 0x00000000
0,     391814,     391814,      578,     2312, 0x00000000
0,     392392,     392392,     1024,     4096, 0x00000000
0,     393416,     393416,      577,     2308, 0x00000000
0,     393993,     393993,     1024,     4096, 0x00000000
0,     395017,     395017,      578,     2312, 0x00000000
0,     395595,     395595,     1024,     4096, 0x00000000
0,     396619,     396619,      578,     2312, 0x00000000
0,     397197,     397197,     1024,     4096, 0x00000000
0,     398221,     398221,      577,     2308, 0x00000000
0,     398798,     398798,     1024,     4096, 0x00000000
0,     399822,     399822,      578,     2312, 0x00000000
0,     400400,     400400,     1024,     4096, 0x00000000
0,     401424,     401424,      578,     2312, 0x00000000
0,     402002,     402002,     1024,     4096, 0x00000000
0,     403026,     403026,      577,     2308, 0x00000000
0,     403603,     403603,     1024,     4096, 0x00000000
0,     404627,     404627,      578,     2312, 0x00000000
0,     405205,     405205,     1024,     4096, 0x00000000
0,     406229,     406229,      577,     2308, 0x00000000
0,     406806,     406806,     1024,     4096, 0x00000000
0,     407830,     407830,      578,     2312, 0x00000000
0,     408408,     408408,     1024,     4096, 0x00000000
0,     409432,     409432,      578,     2312, 0x00000000
0,     410010,     410010,     1024,     4096, 0x00000000
0,     411034,     411034,      577,     2308, 0x00000000
0,     411611,     411611,     1024,     4096, 0x00000000
0,     412635,     412635,      578,     2312, 0x00000000
0,     413213,     413213,     1024,     4096, 0x00000000
0,     414237,     414237,      577,     2308, 0x00000000
0,     414814,     414814,     1024,     4096, 0x00000000
0,     415838,     415838,      578,     2312, 0x00000000
0,     416416,     416416,     1024,     4096, 0x00000000
0,     417440,     417440,      578,     2312, 0x00000000
0,     418018,     418018,     1024,     4096, 0x00000000
0,     419042,     419042,      577,     2308, 0x00000000
0,     419619,     419619,     1024,     4096, 0x00000000
0,     420643,     420643,      578,     2312, 0x00000000
0,     421221,     421221,     1024,     4096, 0x00000000
0,     422245,     422245,      577,     2308, 0x00000000
0,     422822,     422822,     1024,     4096, 0x00000000
0,     423846,     423846,      578,     2312, 0x00000000
0,     424424,     424424,     1024,     4096, 0x00000000
0,     425448,     425448,      578,     2312, 0x00000000
0,     426026,     426026,     1024,     4096, 0x00000000
0,     427050,     427050,      577,     2308, 0x00000000
0,     427627,     427627,     1024,     4096, 0x00000000
0,     428651,     428651,      578,     2312, 0x00000000
0,     429229,     429229,     1024,     4096, 0x00000000
0,     430253,     430253,      577,     2308, 0x00000000
0,     430830,     430830,     1024,     4096, 0x00000000
0,     431854,     431854,      578,     2312, 0x00000000
0,     432432,     432432,     1024,     4096, 0x00000000
0,     433456,     433456,      578,     2312, 0x00000000
0,     434034,     434034,     1024,     4096, 0x00000000
0,     435058,     435058,      577,     2308, 0x00000000
0,     435635,     435635,     1024,     4096, 0x00000000
0,     436659,     436659,      578,     2312, 0x00000000
0,     437237,     437237,     1024,     4096, 0x00000000
0,     438261,     438261,      577,     2308, 0x00000000
0,     438838,     438838,     1024,     4096, 0x00000000
0,     439862,     439862,      578,     2312, 0x00000000
0,     440440,     440440,     1024,     4096, 0x00000000
0,     441464,     441464,      578,     2312, 0x00000000
0,     442042,     442042,     1024,     4096, 0x00000000
0,     443066,     443066,      577,     2308, 0x00000000
0,     443643,     443643,     1024,     4096, 0x00000000
0,     444667,     444667,      578,     2312, 0x00000000
0,     445245,     445245,     1024,     4096, 0x00000000
0,     446269,     446269,      577,     2308, 0x00000000
0,     446846,     446846,     1024,     4096, 0x00000000
0,     447870,     447870,      578,     2312, 0x00000000
0,     448448,     448448,     1024,     4096, 0x00000000
0,     449472,     449472,      578,     2312, 0x00000000
0,     450050,     450050,     1024,     4096, 0x00000000
0,     451074,     451074,      577,     2308, 0x00000000
0,     451651,     451651,     1024,     4096, 0x00000000
0,     452675,     452675,      578,     2312, 0x00000000
0,     453253,     453253,     1024,     4096, 0x00000000
0,     454277,     454277,      577,     2308, 0x00000000
0,     454854,     454854,     1024,     4096, 0x00000000
0,     455878,     455878,      578,     2312, 0x00000000
0,     456456,     456456,     1024,     4096, 0x00000000
0,     457480,     457480,      578,     2312, 0x00000000
0,     458058,     458058,     1024,     4096, 0x00000000
0,     459082,     459082,      577,     2308, 0x00000000
0,     459659,     459659,     1024,     4096, 0x00000000
0,     460683,     460683,      578,     2312, 0x00000000
0,     461261,     461261,     1024,     4096, 0x00000000
0,     462285,     462285,      577,     2308, 0x00000000
0,     462862,     462862,     1024,     4096, 0x00000000
0,     463886,     463886,      578,     2312, 0x00000000
0,     464464,     464464,     1024,     4096, 0x00000000
0,     465488,     465488,      578,     2312, 0x00000000
0,     466066,     466066,     1024,     4096, 0x00000000
0,     467090,     467090,      577,     2308, 0x00000000
0,     467667,     467667,     1024,     4096, 0x00000000
0,     468691,     468691,      578,     2312, 0x00000000
0,     469269,     469269,     1024,     4096, 0x00000000
0,     470293,     470293,      577,     2308, 0x00000000
0,     470870,     470870,     1024,     4096, 0x00000000
0,     471894,     471894,      578,     2312, 0x00000000
0,     472472,     472472,     1024,     4096, 0x00000000
0,     473496,     473496,      578,     2312, 0x00000000
0,     474074,     474074,     1024,     4096, 0x00000000
0,     475098,     475098,      577,     2308, 0x00000000
0,     475675,     475675,     1024,     4096, 0x00000000
0,     476699,     476699,      578,     2312, 0x00000000
0,     477277,     477277,     1024,     4096, 0x00000000
0,     478301,     478301,      577,     2308, 0x00000000
0,     478878,     478878,     1024,     4096, 0x00000000
0,     479902,     479902,      578,     2312, 0x00000000
0,     480480,     480480,     1024,     4096, 0x00000000
0,     481504,     481504,      578,     2312, 0x00000000
0,     482082,     482082,     1024,     4096, 0x00000000
0,     483106,     483106,      577,     2308, 0x00000000
0,     483683,     483683,     1024,     4096, 0x00000000
0,     484707,     484707,      578,     2312, 0x00000000
0,     485285,     485285,     1024,     4096, 0x00000000
0,     486309,     486309,      577,     2308, 0x00000000
0,     486886,     486886,     1024,     4096, 0x00000000
0,     487910,     487910,      578,     2312, 0x00000000
0,     488488,     488488,     1024,     4096, 0x00000000
0,     489512,     489512,      578,     2312, 0x00000000
0,     490090,     490090,     1024,     4096, 0x00000000
0,     491114,     491114,      577,     2308, 0x00000000
0,     491691,     491691,     1024,     4096, 0x00000000
0,     492715,     492715,      578,     2312, 0x00000000
0,     493293,     493293,     1024,     4096, 0x00000000
0,     494317,     494317,      577,     2308, 0x00000000
0,     494894,     494894,     1024,     4096, 0x00000000
0,     495918,     495918,      578,     2312, 0x00000000
0,     496496,     496496,     1024,     4096, 0x00000000
0,     497520,     497520,      578,     2312, 0x00000000
0,     498098,     498098,     1024,     4096, 0x00000000
0,     499122,     499122,      577,     2308, 0x00000000
0,     499699,     499699,     1024,     4096, 0x00000000
0,     500723,     500723,      578,     2312, 0x00000000
0,     501301,     501301,     1024,     4096, 0x00000000
0,     502325,     502325,      577,     2308, 0x00000000
0,     502902,     502902,     1024,     4096, 0x00000000
0,     503926,     503926,      578,     2312, 0x00000000
0,     504504,     504504,     1024,     4096, 0x00000000
0,     505528,     505528,      578,     2312, 0x00000000
0,     506106,     506106,     1024,     4096, 0x00000000
0,     507130,     507130,      577,     2308, 0x00000000
0,     507707,     507707,     1024,     4096, 0x00000000
0,     508731,     508731,      578,     2312, 0x00000000
0,     509309,     509309,     1024,     4096, 0x00000000
0,     510333,     510333,      577,     2308, 0x00000000
0,     510910,     510910,     1024,     4096, 0x00000000
0,     511934,     511934,      578,     2312, 0x00000000
0,     512512,     512512,     1024,     4096, 0x00000000
0,     513536,     513536,      578,     2312, 0x00000000
0,     514114,     514114,     1024,     4096, 0x00000000
0,     515138,     515138,      577,     2308, 0x00000000
0,     515715,     515715,     1024,     4096, 0x00000000
0,     516739,     516739,      578,     2312, 0x00000000
0,     517317,     517317,     1024,     4096, 0x00000000
0,     518341,     518341,      577,     2308, 0x00000000
0,     518918,     518918,     1024,     4096, 0x00000000
0,     519942,     519942,      578,     2312, 0x00000000
0,     520520,     520520,     1024,     4096, 0x00000000
0,     521544,     521544,      578,     2312, 0x00000000
0,     522122,     522122,     1024,     4096, 0x00000000
0,     523146,     523146,      577,     2308, 0x00000000
0,     523723,     523723,     1024,     4096, 0x00000000
0,     524747,     524747,      578,     2312, 0x00000000
0,     525325,     525325,     1024,     4096, 0x00000000
0,     526349,     526349,      577,     2308, 0x00000000
0,     526926,     526926,     1024,     4096, 0x00000000
0,     527950,     527950,      578,     2312, 0x00000000
0,     528528,     528528,     1024,     4096, 0x00000000
0,     529552,     529552,      578,     2312, 0x00000000
0,     530130,     530130,     1024,     4096, 0x00000000
0,     531154,     531154,      577,     2308, 0x00000000
0,     531731,     531731,     1024,     4096, 0x00000000
0,     532755,     532755,      578,     2312, 0x00000000
0,     533333,     533333,     1024,     4096, 0x00000000
0,     534357,     534357,      577,     2308, 0x00000000
0,     534934,     534934,     1024,     4096, 0x00000000
0,     535958,     535958,      578,     2312, 0x00000000
0,     536536,     536536,     1024,     4096, 0x00000000
0,     537560,     537560,      578,     2312, 0x00000000
0,     538138,     538138,     1024,     4096, 0x00000000
0,     539162,     539162,      577,     2308, 0x00000000
0,     539739,     539739,     1024,     4096, 0x00000000
0,     540763,     540763,      578,     2312, 0x00000000
0,     541341,     541341,     1024,     4096, 0x00000000
0,     542365,     542365,      577,     2308, 0x00000000
0,     542942,     542942,     1024,     4096, 0x00000000
0,     543966,     543966,      578,     2312, 0x00000000
0,     544544,     544544,     1024,     4096, 0x00000000
0,     545568,     545568,      578,     2312, 0x00000000
0,     546146,     546146,     1024,     4096, 0x00000000
0,     547170,     547170,      577,     2308, 0x00000000
0,     547747,     547747,     1024,     4096, 0x00000000
0,     548771,     548771,      578,     2312, 0x00000000
0,     549349,     549349,     1024,     4096, 0x00000000
0,     550373,     550373,      577,     2308, 0x00000000
0,     550950,     550950,     1024,     4096, 0x00000000
0,     551974,     551974,      578,     2312, 0x00000000
0,     552552,     552552,     1024,     4096, 0x00000000
0,     553576,     553576,      578,     2312, 0x00000000
0,     554154,     554154,     1024,     4096, 0x00000000
0,     555178,     555178,      577,     2308, 0x00000000
0,     555755,     555755,     1024,     4096, 0x00000000
0,     556779,     556779,      578,     2312, 0x00000000
0,     557357,     557357,     1024,     4096, 0x00000000
0,     558381,     558381,      577,     2308, 0x00000000
0,     558958,     558958,     1024,     4096, 0x00000000
0,     559982,     559982,      578,     2312, 0x00000000
0,     560560,     560560,     1024,     4096, 0x00000000
0,     561584,     561584,      578,     2312, 0x00000000
0,     562162,     562162,     1024,     4096, 0x00000000
0,     563186,     563186,      577,     2308, 0x00000000
0,     563763,     563763,     1024,     4096, 0x00000000
0,     564787,     564787,      578,     2312, 0x00000000
0,     565365,     565365,     1024,     4096, 0x00000000
0,     566389,     566389,      577,     2308, 0x00000000
0,     566966,     566966,     1024,     4096, 0x00000000
0,     567990,     567990,      578,     2312, 0x00000000
0,     568568,     568568,     1024,     4096, 0x00000000
0,     569592,     569592,      578,     2312, 0x00000000
0,     570170,     570170,     1024,     4096, 0x00000000
0,     571194,     571194,      577,     2308, 0x00000000
0,     571771,     571771,     1024,     4096, 0x00000000
0,     572795,     572795,      578,     2312, 0x00000000
0,     573373,     573373,     1024,     4096, 0x00000000
0,     574397,     574397,      577,     2308, 0x00000000
0,     574974,     574974,     1024,     4096, 0x00000000
0,     575998,     575998,      578,     2312, 0x00000000
0,     576576,     576576,     1024,     4096, 0x00000000
0,     577600,     577600,      578,     2312, 0x00000000
0,     578178,     578178,     1024,     4096, 0x00000000
0,     579202,     579202,      577,     2308, 0x00000000
0,     579779,     579779,     1024,     4096, 0x00000000
0,     580803,     580803,      578,     2312, 0x00000000
0,     581381,     581381,     1024,     4096, 0x00000000
0,     582405,     582405,      577,     2308, 0x00000000
0,     582982,     582982,     1024,     4096, 0x00000000
0,     584006,     584006,      578,     2312, 0x00000000
0,     584584,     584584,     1024,     4096, 0x00000000
0,     585608,     585608,      578,     2312, 0x00000000
0,     586186,     586186,     1024,     4096, 0x00000000
0,     587210,     587210,      577,     2308, 0x00000000
0,     587787,     587787,     1024,     4096, 0x00000000
0,     588811,     588811,      578,     2312, 0x00000000
0,     589389,     589389,     1024,     4096, 0x00000000
0,     590413,     590413,      577,     2308, 0x00000000
0,     590990,     590990,     1024,     4096, 0x00000000
0,     592014,     592014,      578,     2312, 0x00000000
0,     592592,     592592,     1024,     4096, 0x00000000
0,     593616,     593616,      578,     2312, 0x00000000
0,     594194,     594194,     1024,     4096, 0x00000000
0,     595218,     595218,      577,     2308, 0x00000000
0,     595795,     595795,     1024,     4096, 0x00000000
0,     596819,     596819,      578,     2312, 0x00000000
0,     597397,     597397,     1024,     4096, 0x00000000
0,     598421,     598421,      577,     2308, 0x00000000
0,     598998,     598998,     1024,     4096, 0x00000000
0,     600022,     600022,      578,     2312, 0x00000000
0,     600600,     600600,     1024,     4096, 0x00000000
0,     601624,     601624,      578,     2312, 0x00000000
0,     602202,     602202,     1024,     4096, 0x00000000
0,     603226,     603226,      577,     2308, 0x00000000
0,     603803,     603803,     1024,     4096, 0x00000000
0,     604827,     604827,      578,     2312, 0x00000000
0,     605405,     605405,     1024,     4096, 0x00000000
0,     606429,     606429,      578,     2312, 0x00000000
